<?xml version="1.0" encoding="UTF-8" standalone="no"?>
<!DOCTYPE svg PUBLIC "-//W3C//DTD SVG 1.1//EN" "http://www.w3.org/Graphics/SVG/1.1/DTD/svg11.dtd">
<!-- Generated by Microsoft Visio, SVG Export Diagrams.svg Org_Haymarket_DataImport -->
<svg xmlns="http://www.w3.org/2000/svg" xmlns:xlink="http://www.w3.org/1999/xlink" xmlns:ev="http://www.w3.org/2001/xml-events"
		xmlns:v="http://schemas.microsoft.com/visio/2003/SVGExtensions/" width="8.5in" height="5.5in" viewBox="0 0 612 396"
		xml:space="preserve" color-interpolation-filters="sRGB" class="st13">
	<v:documentProperties v:langID="16393" v:metric="true" v:viewMarkup="false">
		<v:userDefs>
			<v:ud v:nameU="msvNoAutoConnect" v:val="VT0(1):26"/>
		</v:userDefs>
	</v:documentProperties>

	<style type="text/css">
	<![CDATA[
		.st1 {fill:none;stroke:#666666;stroke-dasharray:0.72,0.72;stroke-linecap:round;stroke-linejoin:round;stroke-width:0.24}
		.st2 {fill:#ffffff;stroke:#000000;stroke-linecap:round;stroke-linejoin:round;stroke-width:0.24}
		.st3 {fill:#000000;font-family:Calibri;font-size:0.666664em}
		.st4 {fill:#ffffff}
		.st5 {stroke:#000000;stroke-linecap:round;stroke-linejoin:round;stroke-width:0.24}
		.st6 {fill:none;stroke:none;stroke-linecap:round;stroke-linejoin:round;stroke-width:0.75}
		.st7 {fill:#000000;font-family:Calibri;font-size:1.00001em}
		.st8 {fill:#ffffff;stroke:#000000;stroke-linecap:round;stroke-linejoin:round;stroke-width:0.75}
		.st9 {font-size:1em}
		.st10 {marker-end:url(#mrkr14-63);stroke:#000000;stroke-linecap:round;stroke-linejoin:round;stroke-width:0.75}
		.st11 {fill:#000000;fill-opacity:1;stroke:#000000;stroke-opacity:1;stroke-width:0.22935779816514}
		.st12 {stroke:#000000;stroke-linecap:round;stroke-linejoin:round;stroke-width:0.75}
		.st13 {fill:none;fill-rule:evenodd;font-size:12px;overflow:visible;stroke-linecap:square;stroke-miterlimit:3}
	]]>
	</style>

	<defs id="Markers">
		<g id="lend14">
			<path d="M 3 -1 L 0 0 L 3 1 L 3 -1 " style="stroke-linecap:round;stroke-linejoin:round;fill:none"/>
		</g>
		<marker id="mrkr14-63" class="st11" v:arrowType="14" v:arrowSize="2" v:setback="13.08" refX="-13.08" orient="auto"
				markerUnits="strokeWidth" overflow="visible">
			<use xlink:href="#lend14" transform="scale(-4.36,-4.36) "/>
		</marker>
	</defs>
	<g v:mID="0" v:index="1" v:groupContext="foregroundPage">
		<title>Org_Haymarket_DataImport</title>
		<v:pageProperties v:drawingScale="0.0393701" v:pageScale="0.0393701" v:drawingUnits="24" v:shadowOffsetX="8.50394"
				v:shadowOffsetY="-8.50394"/>
		<v:layer v:name="Connector" v:index="0"/>
		<g id="shape1-1" v:mID="1" v:groupContext="shape" transform="translate(45.3543,-73.7008)">
			<title>Boundary</title>
			<v:userDefs>
				<v:ud v:nameU="visVersion" v:val="VT0(15):26"/>
			</v:userDefs>
			<path d="M0 396 L79.37 396 L79.37 135.21 L0 135.21 L0 396 Z" class="st1"/>
		</g>
		<g id="shape2-3" v:mID="2" v:groupContext="shape" transform="translate(493.228,-136.063)">
			<title>Boundary.2</title>
			<v:userDefs>
				<v:ud v:nameU="visVersion" v:val="VT0(15):26"/>
			</v:userDefs>
			<path d="M0 396 L79.37 396 L79.37 271.28 L0 271.28 L0 396 Z" class="st1"/>
		</g>
		<g id="shape3-5" v:mID="3" v:groupContext="shape" transform="translate(513.071,-208.949)">
			<title>Data store</title>
			<desc>SQL Server</desc>
			<v:userDefs>
				<v:ud v:nameU="CH" v:val="VT0(5):26"/>
				<v:ud v:nameU="visVersion" v:val="VT0(15):26"/>
				<v:ud v:nameU="CH" v:prompt="" v:val="VT0(0):26"/>
			</v:userDefs>
			<v:textBlock v:margins="rect(2,2,2,2)" v:tabSpace="42.5197"/>
			<v:textRect cx="19.8425" cy="402.802" width="64" height="13.6036"/>
			<path d="M0 366.13 A19.8425 10.6299 0 1 1 39.69 366.13 A19.8425 10.6299 0 1 1 0 366.13 ZM0 366.13 L0 385.37 A19.8425
						 10.6299 -180 1 0 39.69 385.37 L39.69 366.13 A19.8425 10.6299 0 1 1 0 366.13 Z" class="st2"/>
			<text x="2.31" y="405.2" class="st3" v:langID="16393"><v:paragraph v:horizAlign="1"/><v:tabList/>SQL Server</text>		</g>
		<g id="shape5-8" v:mID="5" v:groupContext="shape" transform="translate(70.2992,-209.764)">
			<title>Document/ file</title>
			<desc>API</desc>
			<v:userDefs>
				<v:ud v:nameU="visVersion" v:val="VT0(15):26"/>
			</v:userDefs>
			<v:textBlock v:margins="rect(2,2,2,2)" v:tabSpace="42.5197"/>
			<v:textRect cx="14.7402" cy="382.181" width="29.49" height="27.6378"/>
			<path d="M19.65 359.15 L29.48 368.36 L19.65 368.36 L19.65 359.15 ZM0 359.15 L0 396 L29.48 396 L29.48 368.36 L19.65 368.36
						 L19.65 359.15 L0 359.15 Z" class="st2"/>
			<text x="9.35" y="384.58" class="st3" v:langID="16393"><v:paragraph v:horizAlign="1"/><v:tabList/>API</text>		</g>
		<g id="group20-11" transform="translate(70.2992,-277.795)" v:mID="20" v:groupContext="group">
			<v:userDefs>
				<v:ud v:nameU="CH" v:val="VT0(5):26"/>
				<v:ud v:nameU="visVersion" v:val="VT0(15):26"/>
				<v:ud v:nameU="CH" v:prompt="" v:val="VT0(0):26"/>
			</v:userDefs>
			<title>Embedded document</title>
			<desc>CSV/Excel</desc>
			<g id="shape21-12" v:mID="21" v:groupContext="shape">
				<title>Sheet.21</title>
				<path d="M19.65 359.15 L29.48 368.36 L19.65 368.36 L19.65 359.15 ZM0 359.15 L0 396 L29.48 396 L29.48 368.36 L19.65
							 368.36 L19.65 359.15 L0 359.15 Z" class="st2"/>
			</g>
			<g id="shape22-14" v:mID="22" v:groupContext="shape" transform="translate(7.37008,-5.75787)">
				<title>Sheet.22</title>
				<path d="M0 396 L14.74 396 L14.74 377.57 L0 377.57 L0 396 ZM2.46 390.24 L12.28 390.24 L12.28 383.33 L2.46 383.33
							 L2.46 390.24 Z" class="st4"/>
				<path d="M0 396 L14.74 396 L14.74 377.57 L0 377.57 L0 396" class="st5"/>
				<path d="M2.46 389.09 L12.28 389.09" class="st5"/>
				<path d="M2.46 387.94 L12.28 387.94" class="st5"/>
				<path d="M2.46 386.79 L12.28 386.79" class="st5"/>
				<path d="M2.46 385.64 L12.28 385.64" class="st5"/>
				<path d="M2.46 384.48 L12.28 384.48" class="st5"/>
				<path d="M9.83 383.33 L9.83 390.24" class="st5"/>
				<path d="M8.6 383.33 L8.6 390.24" class="st5"/>
				<path d="M6.14 383.33 L6.14 390.24" class="st5"/>
				<path d="M4.91 383.33 L4.91 390.24" class="st5"/>
				<path d="M2.46 390.24 L12.28 390.24 L12.28 383.33 L2.46 383.33 L2.46 390.24" class="st5"/>
				<path d="M0 379.88 L14.74 379.88" class="st5"/>
			</g>
			<g id="shape20-28" v:mID="20" v:groupContext="groupContent">
				<v:textBlock v:margins="rect(0,0,0,0)" v:tabSpace="42.5197"/>
				<v:textRect cx="14.7402" cy="400.802" width="64" height="9.60356"/>
				<text x="-1.33" y="403.2" class="st3" v:langID="16393"><v:paragraph v:horizAlign="1"/><v:tabList/>CSV/Excel</text>			</g>
		</g>
		<g id="shape23-30" v:mID="23" v:groupContext="shape" transform="translate(70.2992,-150.236)">
			<title>Document/ file.23</title>
			<desc>JSON</desc>
			<v:userDefs>
				<v:ud v:nameU="visVersion" v:val="VT0(15):26"/>
			</v:userDefs>
			<v:textBlock v:margins="rect(2,2,2,2)" v:tabSpace="42.5197"/>
			<v:textRect cx="14.7402" cy="382.181" width="29.49" height="27.6378"/>
			<path d="M19.65 359.15 L29.48 368.36 L19.65 368.36 L19.65 359.15 ZM0 359.15 L0 396 L29.48 396 L29.48 368.36 L19.65 368.36
						 L19.65 359.15 L0 359.15 Z" class="st2"/>
			<text x="6.4" y="384.58" class="st3" v:langID="16393"><v:paragraph v:horizAlign="1"/><v:tabList/>JSON</text>		</g>
		<g id="shape24-33" v:mID="24" v:groupContext="shape" transform="translate(70.2992,-94.9606)">
			<title>Document/ file.24</title>
			<desc>XML</desc>
			<v:userDefs>
				<v:ud v:nameU="visVersion" v:val="VT0(15):26"/>
			</v:userDefs>
			<v:textBlock v:margins="rect(2,2,2,2)" v:tabSpace="42.5197"/>
			<v:textRect cx="14.7402" cy="382.181" width="29.49" height="27.6378"/>
			<path d="M19.65 359.15 L29.48 368.36 L19.65 368.36 L19.65 359.15 ZM0 359.15 L0 396 L29.48 396 L29.48 368.36 L19.65 368.36
						 L19.65 359.15 L0 359.15 Z" class="st2"/>
			<text x="7.56" y="384.58" class="st3" v:langID="16393"><v:paragraph v:horizAlign="1"/><v:tabList/>XML</text>		</g>
		<g id="shape25-36" v:mID="25" v:groupContext="shape" transform="translate(45.3543,-334.488)">
			<title>Sheet.25</title>
			<desc>Client Sources</desc>
			<v:textBlock v:margins="rect(4,4,4,4)" v:tabSpace="42.5197"/>
			<v:textRect cx="39.685" cy="386" width="79.38" height="20"/>
			<rect x="0" y="376" width="79.3701" height="20" class="st6"/>
			<text x="5.19" y="389.6" class="st7" v:langID="16393"><v:paragraph v:horizAlign="1"/><v:tabList/>Client Sources</text>		</g>
		<g id="shape26-39" v:mID="26" v:groupContext="shape" transform="translate(493.228,-260.787)">
			<title>Sheet.26</title>
			<desc>HBM Stores</desc>
			<v:textBlock v:margins="rect(4,4,4,4)" v:tabSpace="42.5197"/>
			<v:textRect cx="39.685" cy="386" width="79.38" height="20"/>
			<rect x="0" y="376" width="79.3701" height="20" class="st6"/>
			<text x="10.84" y="389.6" class="st7" v:langID="16393"><v:paragraph v:horizAlign="1"/><v:tabList/>HBM Stores</text>		</g>
		<g id="shape27-42" v:mID="27" v:groupContext="shape" transform="translate(183.118,-179.389)">
			<title>Process</title>
			<desc>Validator</desc>
			<v:userDefs>
				<v:ud v:nameU="visDescription" v:val="VT4(Use to add a process to your system diagram.)"/>
				<v:ud v:nameU="visVersion" v:val="VT0(15):26"/>
			</v:userDefs>
			<v:textBlock v:margins="rect(4,4,4,4)" v:tabSpace="42.5197"/>
			<v:textRect cx="36" cy="375.75" width="72" height="40.5"/>
			<rect x="0" y="355.5" width="72" height="40.5" class="st8"/>
			<text x="21.12" y="378.15" class="st3" v:langID="16393"><v:paragraph v:horizAlign="1"/><v:tabList/>Validator</text>		</g>
		<g id="shape28-45" v:mID="28" v:groupContext="shape" transform="translate(183.118,-97.5915)">
			<title>Process.28</title>
			<desc>Default Value Provider</desc>
			<v:userDefs>
				<v:ud v:nameU="visDescription" v:val="VT4(Use to add a process to your system diagram.)"/>
				<v:ud v:nameU="visVersion" v:val="VT0(15):26"/>
			</v:userDefs>
			<v:textBlock v:margins="rect(4,4,4,4)" v:tabSpace="42.5197"/>
			<v:textRect cx="36" cy="375.75" width="72" height="40.5"/>
			<rect x="0" y="355.5" width="72" height="40.5" class="st8"/>
			<text x="13.95" y="373.35" class="st3" v:langID="16393"><v:paragraph v:horizAlign="1"/><v:tabList/>Default Value <tspan
						x="22.22" dy="1.2em" class="st9">Provider</tspan></text>		</g>
		<g id="shape29-49" v:mID="29" v:groupContext="shape" transform="translate(287.15,-179.389)">
			<title>Process.29</title>
			<desc>Data Mapper</desc>
			<v:userDefs>
				<v:ud v:nameU="visDescription" v:val="VT4(Use to add a process to your system diagram.)"/>
				<v:ud v:nameU="visVersion" v:val="VT0(15):26"/>
			</v:userDefs>
			<v:textBlock v:margins="rect(4,4,4,4)" v:tabSpace="42.5197"/>
			<v:textRect cx="36" cy="375.75" width="72" height="40.5"/>
			<rect x="0" y="355.5" width="72" height="40.5" class="st8"/>
			<text x="14.54" y="378.15" class="st3" v:langID="16393"><v:paragraph v:horizAlign="1"/><v:tabList/>Data Mapper</text>		</g>
		<g id="shape30-52" v:mID="30" v:groupContext="shape" transform="translate(391.181,-179.389)">
			<title>Process.30</title>
			<desc>Data Importer</desc>
			<v:userDefs>
				<v:ud v:nameU="visDescription" v:val="VT4(Use to add a process to your system diagram.)"/>
				<v:ud v:nameU="visVersion" v:val="VT0(15):26"/>
			</v:userDefs>
			<v:textBlock v:margins="rect(4,4,4,4)" v:tabSpace="42.5197"/>
			<v:textRect cx="36" cy="375.75" width="72" height="40.5"/>
			<rect x="0" y="355.5" width="72" height="40.5" class="st8"/>
			<text x="12.93" y="378.15" class="st3" v:langID="16393"><v:paragraph v:horizAlign="1"/><v:tabList/>Data Importer</text>		</g>
		<g id="shape31-55" v:mID="31" v:groupContext="shape" transform="translate(513.071,-157.11)">
			<title>Data store.31</title>
			<desc>MongoDB</desc>
			<v:userDefs>
				<v:ud v:nameU="CH" v:val="VT0(5):26"/>
				<v:ud v:nameU="visVersion" v:val="VT0(15):26"/>
				<v:ud v:nameU="CH" v:prompt="" v:val="VT0(0):26"/>
			</v:userDefs>
			<v:textBlock v:margins="rect(2,2,2,2)" v:tabSpace="42.5197"/>
			<v:textRect cx="19.8425" cy="402.802" width="64" height="13.6036"/>
			<path d="M0 366.13 A19.8425 10.6299 0 1 1 39.69 366.13 A19.8425 10.6299 0 1 1 0 366.13 ZM0 366.13 L0 385.37 A19.8425
						 10.6299 -180 1 0 39.69 385.37 L39.69 366.13 A19.8425 10.6299 0 1 1 0 366.13 Z" class="st2"/>
			<text x="3.58" y="405.2" class="st3" v:langID="16393"><v:paragraph v:horizAlign="1"/><v:tabList/>MongoDB</text>		</g>
		<g id="shape38-58" v:mID="38" v:groupContext="shape" v:layerMember="0" transform="translate(124.724,-211.181)">
			<title>Generalization</title>
			<v:userDefs>
				<v:ud v:nameU="visVersion" v:prompt="" v:val="VT0(15):26"/>
			</v:userDefs>
			<path d="M0 403.09 L48.58 403.09" class="st10"/>
		</g>
		<g id="shape39-64" v:mID="39" v:groupContext="shape" v:layerMember="0" transform="translate(212.031,-138.092)">
			<title>Dependency</title>
			<v:userDefs>
				<v:ud v:nameU="visVersion" v:prompt="" v:val="VT0(15):26"/>
			</v:userDefs>
			<path d="M7.09 396 L7.09 354.7" class="st12"/>
		</g>
		<g id="shape40-67" v:mID="40" v:groupContext="shape" v:layerMember="0" transform="translate(255.118,-192.552)">
			<title>Generalization.40</title>
			<v:userDefs>
				<v:ud v:nameU="visVersion" v:prompt="" v:val="VT0(15):26"/>
			</v:userDefs>
			<path d="M0 388.91 L22.22 388.91" class="st10"/>
		</g>
		<g id="shape41-72" v:mID="41" v:groupContext="shape" v:layerMember="0" transform="translate(359.15,-192.552)">
			<title>Generalization.41</title>
			<v:userDefs>
				<v:ud v:nameU="visVersion" v:prompt="" v:val="VT0(15):26"/>
			</v:userDefs>
			<path d="M0 388.91 L22.22 388.91" class="st10"/>
		</g>
		<g id="shape42-77" v:mID="42" v:groupContext="shape" v:layerMember="0" transform="translate(463.181,-206.14)">
			<title>Generalization.42</title>
			<v:userDefs>
				<v:ud v:nameU="visVersion" v:prompt="" v:val="VT0(15):26"/>
			</v:userDefs>
			<path d="M0 402.91 L20.24 403.15" class="st10"/>
		</g>
		<g id="group43-82" transform="translate(154.205,-247.323)" v:mID="43" v:groupContext="group">
			<v:userDefs>
				<v:ud v:nameU="visVersion" v:prompt="" v:val="VT0(15):26"/>
				<v:ud v:nameU="msvStructureType" v:prompt="" v:val="VT4(Callout)"/>
				<v:ud v:nameU="msvSDTargetIntersection" v:prompt=""/>
				<v:ud v:nameU="msvSDCalloutNoHighlight" v:prompt="" v:val="VT0(0):5"/>
				<v:ud v:nameU="msvShapeCategories" v:prompt="" v:val="VT0(0):26"/>
				<v:ud v:nameU="Side" v:prompt="" v:val="VT0(4):26"/>
				<v:ud v:nameU="LeaderEnd" v:prompt="" v:val="VT7(PNT(6.25MM,-0.28346456692913)):40"/>
				<v:ud v:nameU="WHBoxIntersection" v:prompt="" v:val="VT7(PNT(10.096153846154MM,0)):40"/>
				<v:ud v:nameU="FoldSize" v:prompt="" v:val="VT0(0.11811023622047):24"/>
				<v:ud v:nameU="msvSDTargetIntersection" v:prompt="" v:val="VT7(PNT(0.8365882535248,-0.38102854330709)):40"/>
				<v:ud v:nameU="LeaderEnd" v:prompt="" v:val="VT7(PNT(0.8365882535248,-0.38102854330709)):40"/>
				<v:ud v:nameU="WHBoxIntersection" v:prompt="" v:val="VT7(PNT(0.74854654565602,0)):40"/>
			</v:userDefs>
			<title>Note</title>
			<desc>Data Validator will validate client objects for values.</desc>
			<g id="shape43-83" v:mID="43" v:groupContext="groupContent">
				<v:textBlock v:margins="rect(4,4,4,4)" v:tabSpace="42.5197"/>
				<v:textRect cx="50.4567" cy="381.118" width="100.92" height="27.2035"/>
				<path d="M0 396 L100.91 396 L100.91 374.74 L92.41 366.24 L0 366.24 L0 396 Z" class="st4"/>
				<path d="M53.9 396 L60.23 423.43" class="st12"/>
				<path d="M0 396 L100.91 396 L100.91 374.74 L92.41 366.24 L0 366.24 L0 396" class="st12"/>
				<text x="6.71" y="378.72" class="st3" v:langID="16393"><v:paragraph v:horizAlign="1"/><v:tabList/>Data Validator will validate <tspan
							x="11" dy="1.2em" class="st9">client objects for values</tspan>.</text>			</g>
			<g id="shape44-89" v:mID="44" v:groupContext="shape" transform="translate(92.4094,-21.2598)">
				<title>Sheet.44</title>
				<v:userDefs>
					<v:ud v:nameU="FoldSize" v:prompt="" v:val="VT0(0.11811023622047):24"/>
				</v:userDefs>
				<path d="M0 396 L8.5 396 L8.5 396.85 L8.5 396 L0 387.5 L-0.85 387.5 L0 387.5 L0 396 Z" class="st8"/>
			</g>
		</g>
		<g id="group45-91" transform="translate(250.583,-291.969)" v:mID="45" v:groupContext="group">
			<v:userDefs>
				<v:ud v:nameU="visVersion" v:prompt="" v:val="VT0(15):26"/>
				<v:ud v:nameU="msvStructureType" v:prompt="" v:val="VT4(Callout)"/>
				<v:ud v:nameU="msvSDTargetIntersection" v:prompt=""/>
				<v:ud v:nameU="msvSDCalloutNoHighlight" v:prompt="" v:val="VT0(0):5"/>
				<v:ud v:nameU="msvShapeCategories" v:prompt="" v:val="VT0(0):26"/>
				<v:ud v:nameU="Side" v:prompt="" v:val="VT0(4):26"/>
				<v:ud v:nameU="LeaderEnd" v:prompt="" v:val="VT7(PNT(6.25MM,-0.28346456692913)):40"/>
				<v:ud v:nameU="WHBoxIntersection" v:prompt="" v:val="VT7(PNT(10.096153846154MM,0)):40"/>
				<v:ud v:nameU="FoldSize" v:prompt="" v:val="VT0(0.11811023622047):24"/>
				<v:ud v:nameU="msvSDTargetIntersection" v:prompt="" v:val="VT7(PNT(0.95865575871935,-1.0011072834646)):40"/>
				<v:ud v:nameU="LeaderEnd" v:prompt="" v:val="VT7(PNT(0.95865575871935,-1.0011072834646)):40"/>
				<v:ud v:nameU="WHBoxIntersection" v:prompt="" v:val="VT7(PNT(0.78346373884082,0)):40"/>
			</v:userDefs>
			<title>Note.45</title>
			<desc>This Factory will take client objects and export HBM Source o...</desc>
			<g id="shape45-92" v:mID="45" v:groupContext="groupContent">
				<v:textBlock v:margins="rect(4,4,4,4)" v:tabSpace="42.5197"/>
				<v:textRect cx="50.4567" cy="361.984" width="100.92" height="65.6034"/>
				<path d="M0 396 L100.91 396 L100.91 336.47 L92.41 327.97 L0 327.97 L0 396 Z" class="st4"/>
				<path d="M56.41 396 L69.02 468.08" class="st12"/>
				<path d="M0 396 L100.91 396 L100.91 336.47 L92.41 327.97 L0 327.97 L0 396" class="st12"/>
				<text x="6.57" y="340.38" class="st3" v:langID="16393"><v:paragraph v:horizAlign="1"/><v:tabList/>This Factory will take client <tspan
							x="11.12" dy="1.2em" class="st9">objects and export HBM </tspan><tspan x="10.81" dy="1.2em" class="st9">Source objects</tspan>. For each <tspan
							x="5.76" dy="1.2em" class="st9">client introduced we create </tspan><tspan x="11.16" dy="1.2em"
							class="st9">a new Mapper based on </tspan><tspan x="25.98" dy="1.2em" class="st9">mapping JSON</tspan>.</text>			</g>
			<g id="shape46-102" v:mID="46" v:groupContext="shape" transform="translate(92.4094,-59.5276)">
				<title>Sheet.46</title>
				<v:userDefs>
					<v:ud v:nameU="FoldSize" v:prompt="" v:val="VT0(0.11811023622047):24"/>
				</v:userDefs>
				<path d="M0 396 L8.5 396 L8.5 396.85 L8.5 396 L0 387.5 L-0.85 387.5 L0 387.5 L0 396 Z" class="st8"/>
			</g>
		</g>
		<g id="group47-104" transform="translate(360,-243.071)" v:mID="47" v:groupContext="group">
			<v:userDefs>
				<v:ud v:nameU="visVersion" v:prompt="" v:val="VT0(15):26"/>
				<v:ud v:nameU="msvStructureType" v:prompt="" v:val="VT4(Callout)"/>
				<v:ud v:nameU="msvSDTargetIntersection" v:prompt=""/>
				<v:ud v:nameU="msvSDCalloutNoHighlight" v:prompt="" v:val="VT0(0):5"/>
				<v:ud v:nameU="msvShapeCategories" v:prompt="" v:val="VT0(0):26"/>
				<v:ud v:nameU="Side" v:prompt="" v:val="VT0(4):26"/>
				<v:ud v:nameU="LeaderEnd" v:prompt="" v:val="VT7(PNT(6.25MM,-0.28346456692913)):40"/>
				<v:ud v:nameU="WHBoxIntersection" v:prompt="" v:val="VT7(PNT(10.096153846154MM,0)):40"/>
				<v:ud v:nameU="FoldSize" v:prompt="" v:val="VT0(0.11811023622047):24"/>
				<v:ud v:nameU="msvSDTargetIntersection" v:prompt="" v:val="VT7(PNT(0.85789034794833,-0.32197342519685)):40"/>
				<v:ud v:nameU="LeaderEnd" v:prompt="" v:val="VT7(PNT(0.85789034794833,-0.32197342519685)):40"/>
				<v:ud v:nameU="WHBoxIntersection" v:prompt="" v:val="VT7(PNT(0.7718241116788,0)):40"/>
			</v:userDefs>
			<title>Note.47</title>
			<desc>Import Factory is used to store data based on its stores.</desc>
			<g id="shape47-105" v:mID="47" v:groupContext="groupContent">
				<v:textBlock v:margins="rect(4,4,4,4)" v:tabSpace="42.5197"/>
				<v:textRect cx="50.4567" cy="376.866" width="100.92" height="36.8035"/>
				<path d="M0 396 L100.91 396 L100.91 366.24 L92.41 357.73 L0 357.73 L0 396 Z" class="st4"/>
				<path d="M55.57 396 L61.77 419.18" class="st12"/>
				<path d="M0 396 L100.91 396 L100.91 366.24 L92.41 357.73 L0 357.73 L0 396" class="st12"/>
				<text x="9.9" y="369.67" class="st3" v:langID="16393"><v:paragraph v:horizAlign="1"/><v:tabList/>Import Factory is used to <tspan
							x="13.46" dy="1.2em" class="st9">store data based on its </tspan><tspan x="39.48" dy="1.2em"
							class="st9">stores</tspan>.</text>			</g>
			<g id="shape48-112" v:mID="48" v:groupContext="shape" transform="translate(92.4094,-29.7638)">
				<title>Sheet.48</title>
				<v:userDefs>
					<v:ud v:nameU="FoldSize" v:prompt="" v:val="VT0(0.11811023622047):24"/>
				</v:userDefs>
				<path d="M0 396 L8.5 396 L8.5 396.85 L8.5 396 L0 387.5 L-0.85 387.5 L0 387.5 L0 396 Z" class="st8"/>
			</g>
		</g>
		<g id="group49-114" transform="translate(276.378,-63.0709)" v:mID="49" v:groupContext="group">
			<v:userDefs>
				<v:ud v:nameU="visVersion" v:prompt="" v:val="VT0(15):26"/>
				<v:ud v:nameU="msvStructureType" v:prompt="" v:val="VT4(Callout)"/>
				<v:ud v:nameU="msvSDTargetIntersection" v:prompt=""/>
				<v:ud v:nameU="msvSDCalloutNoHighlight" v:prompt="" v:val="VT0(0):5"/>
				<v:ud v:nameU="msvShapeCategories" v:prompt="" v:val="VT0(0):26"/>
				<v:ud v:nameU="Side" v:prompt="" v:val="VT0(4):26"/>
				<v:ud v:nameU="LeaderEnd" v:prompt="" v:val="VT7(PNT(6.25MM,-0.28346456692913)):40"/>
				<v:ud v:nameU="WHBoxIntersection" v:prompt="" v:val="VT7(PNT(10.096153846154MM,0)):40"/>
				<v:ud v:nameU="FoldSize" v:prompt="" v:val="VT0(0.11811023622047):24"/>
				<v:ud v:nameU="msvSDTargetIntersection" v:prompt="" v:val="VT7(PNT(-0.29527559055118,0.63890093487695)):40"/>
				<v:ud v:nameU="Side" v:prompt="" v:val="VT0(3):26"/>
				<v:ud v:nameU="LeaderEnd" v:prompt="" v:val="VT7(PNT(-0.29527559055118,0.63890093487695)):40"/>
				<v:ud v:nameU="WHBoxIntersection" v:prompt="" v:val="VT7(PNT(0,0.56697014435696)):40"/>
			</v:userDefs>
			<title>Note.49</title>
			<desc>If we don&#39;t recieve any value for property or we want to set ...</desc>
			<g id="shape49-115" v:mID="49" v:groupContext="groupContent">
				<v:textBlock v:margins="rect(4,4,4,4)" v:tabSpace="42.5197"/>
				<v:textRect cx="71.5748" cy="372.614" width="143.15" height="46.4035"/>
				<path d="M0 396 L143.15 396 L143.15 357.73 L134.65 349.23 L0 349.23 L0 396 Z" class="st4"/>
				<path d="M0 355.18 L-21.26 350" class="st12"/>
				<path d="M0 396 L143.15 396 L143.15 357.73 L134.65 349.23 L0 349.23 L0 396" class="st12"/>
				<text x="4" y="360.61" class="st3" v:langID="16393"><v:paragraph/><v:tabList/>If we don&#39;t recieve any value for property <tspan
							x="4" dy="1.2em" class="st9">or we want to set some defaults we can </tspan><tspan x="4" dy="1.2em"
							class="st9">specify conditions and filters in this </tspan><tspan x="4" dy="1.2em" class="st9">provider</tspan>.</text>			</g>
			<g id="shape50-123" v:mID="50" v:groupContext="shape" transform="translate(134.646,-38.2677)">
				<title>Sheet.50</title>
				<v:userDefs>
					<v:ud v:nameU="FoldSize" v:prompt="" v:val="VT0(0.11811023622047):24"/>
				</v:userDefs>
				<path d="M0 396 L8.5 396 L8.5 396.85 L8.5 396 L0 387.5 L-0.85 387.5 L0 387.5 L0 396 Z" class="st8"/>
			</g>
		</g>
	</g>
</svg>
